Hanif_Shallow_5_0_grf.mot
version=1
nRows=26
nColumns=19
inDegrees=yes
endheader
time	right_ground_force_vx	right_ground_force_vy	right_ground_force_vz	right_ground_force_px	right_ground_force_py	right_ground_force_pz	right_ground_torque_x	right_ground_torque_y	right_ground_torque_z	left_ground_force_vx	left_ground_force_vy	left_ground_force_vz	left_ground_force_px	left_ground_force_py	left_ground_force_pz	left_ground_torque_x	left_ground_torque_y	left_ground_torque_z
1.200000	-4.164940	319.504000	50.947100	0.210008	0.000000	-1.428900	-24.665500	1.674680	3.597010	3.473780	311.541000	-51.068800	0.213333	0.000000	-0.980364	24.032100	-5.849810	5.180240
1.205000	-4.636940	319.499000	50.681800	0.209779	0.000000	-1.428090	-24.926100	1.561270	3.507860	3.391500	308.573000	-51.061200	0.213547	0.000000	-0.980124	23.729500	-5.831560	5.216370
1.210000	-4.659780	316.659000	50.224800	0.209931	0.000000	-1.428750	-24.498600	1.581390	3.531670	3.697690	308.813000	-50.600500	0.213009	0.000000	-0.980335	23.808000	-5.812680	5.030740
1.215000	-4.798890	318.034000	50.046100	0.210066	0.000000	-1.428150	-24.794600	1.553840	3.583930	3.786650	309.943000	-50.865300	0.213348	0.000000	-0.979651	23.682200	-5.785300	5.150210
1.220000	-4.795610	315.450000	49.791500	0.209943	0.000000	-1.427810	-24.700600	1.519050	3.513740	4.037510	309.084000	-50.847100	0.213009	0.000000	-0.980332	23.820700	-5.875690	5.044790
1.225000	-4.576190	315.367000	49.461600	0.209901	0.000000	-1.428100	-24.601400	1.487750	3.488540	4.416210	310.094000	-50.835900	0.212553	0.000000	-0.979828	23.736300	-5.849990	4.900750
1.230000	-4.642630	317.193000	48.857200	0.209419	0.000000	-1.428620	-24.578400	1.574460	3.356460	4.152260	309.335000	-50.734200	0.212757	0.000000	-0.980466	23.880300	-5.831880	4.955980
1.235000	-4.090710	315.128000	48.680800	0.209646	0.000000	-1.427430	-24.786800	1.402320	3.378600	4.440600	307.980000	-51.120100	0.212632	0.000000	-0.980280	23.712900	-5.797880	4.903030
1.240000	-4.345420	316.671000	48.578400	0.210130	0.000000	-1.428670	-24.519100	1.474350	3.561240	4.757330	308.108000	-50.657800	0.212776	0.000000	-0.979702	23.537800	-5.842700	4.943340
1.245000	-4.461430	316.292000	48.089300	0.209658	0.000000	-1.427780	-24.773300	1.457630	3.400000	4.964360	308.176000	-51.040500	0.212236	0.000000	-0.980931	23.917500	-5.907250	4.788650
1.250000	-4.317310	315.107000	48.235400	0.210100	0.000000	-1.427480	-24.774600	1.460780	3.532680	4.998770	308.833000	-51.540200	0.211964	0.000000	-0.980539	23.849300	-5.788150	4.699020
1.255000	-4.911060	314.655000	47.795900	0.209225	0.000000	-1.427400	-24.764600	1.352400	3.233880	5.086470	307.725000	-51.038700	0.212996	0.000000	-0.980222	23.662300	-5.831940	5.011210
1.260000	-4.861920	313.361000	47.063800	0.209319	0.000000	-1.428240	-24.401200	1.412660	3.255080	4.925860	308.303000	-50.784400	0.212470	0.000000	-0.980472	23.787200	-5.862760	4.851830
1.265000	-5.034610	311.894000	46.611400	0.209163	0.000000	-1.427070	-24.654900	1.485690	3.203090	4.738750	308.159000	-50.616100	0.213472	0.000000	-0.980195	23.693400	-5.867670	5.167260
1.270000	-4.994840	309.760000	46.579000	0.208906	0.000000	-1.426920	-24.532800	1.469680	3.101390	4.977450	306.612000	-50.405700	0.212596	0.000000	-0.980630	23.703400	-5.852530	4.865180
1.275000	-4.797080	309.628000	45.960900	0.208704	0.000000	-1.427440	-24.359800	1.443800	3.024780	5.056540	307.303000	-49.999400	0.213056	0.000000	-0.980587	23.742400	-5.836930	5.004370
1.280000	-4.633380	309.206000	45.727400	0.208649	0.000000	-1.427840	-24.198800	1.430020	2.997830	4.768340	307.424000	-50.125600	0.212207	0.000000	-0.980662	23.780800	-5.833210	4.743170
1.285000	-4.937440	306.823000	45.744500	0.209075	0.000000	-1.427640	-24.079400	1.479030	3.124590	5.318560	304.241000	-49.662400	0.213275	0.000000	-0.980663	23.522300	-5.820240	5.029140
1.290000	-5.269870	305.616000	45.561100	0.208720	0.000000	-1.427240	-24.107100	1.342240	2.986230	4.869610	303.972000	-49.440300	0.212490	0.000000	-0.980026	23.316300	-5.843040	4.786350
1.295000	-4.497470	307.143000	45.677500	0.208307	0.000000	-1.427500	-24.142700	1.394800	2.867810	5.447810	300.897000	-49.557900	0.212941	0.000000	-0.980927	23.339100	-5.801130	4.885150
1.300000	-5.204270	306.506000	45.368800	0.208497	0.000000	-1.427640	-24.055700	1.434680	2.934200	5.152190	300.716000	-49.171800	0.213049	0.000000	-0.980874	23.315400	-5.746320	4.902920
1.305000	-4.946750	307.073000	45.479900	0.208898	0.000000	-1.427630	-24.099300	1.376210	3.053570	4.530170	301.014000	-49.034600	0.212822	0.000000	-0.980259	23.166000	-5.713180	4.835740
1.310000	-4.789060	308.023000	46.065200	0.209309	0.000000	-1.427640	-24.169800	1.417430	3.199680	4.455300	301.260000	-48.582000	0.213480	0.000000	-0.980095	23.136500	-5.717460	5.033360
1.315000	-4.898330	310.751000	46.388400	0.209287	0.000000	-1.426980	-24.589300	1.396880	3.216580	4.480840	302.751000	-48.923500	0.213486	0.000000	-0.980119	23.257400	-5.799970	5.070950
1.320000	-4.781430	310.552000	46.279600	0.209695	0.000000	-1.426960	-24.580400	1.500100	3.357420	4.122870	303.254000	-49.031800	0.214019	0.000000	-0.980728	23.489000	-5.683820	5.229680
1.325000	-4.701990	312.543000	46.740800	0.210067	0.000000	-1.426960	-24.739300	1.456530	3.490300	4.150010	302.881000	-49.507800	0.214287	0.000000	-0.981031	23.550800	-5.700600	5.321770
